<svg width="16" height="17" viewBox="0 0 16 17" fill="none" xmlns="http://www.w3.org/2000/svg">
<path d="M9.33716 10.108C8.93909 10.3733 8.47672 10.5136 8 10.5136C7.52331 10.5136 7.06094 10.3733 6.66288 10.108L0.106531 5.73694C0.0701562 5.71269 0.0347187 5.68741 0 5.66141V12.8238C0 13.645 0.666406 14.2967 1.47291 14.2967H14.5271C15.3482 14.2967 16 13.6303 16 12.8238V5.66138C15.9652 5.68744 15.9297 5.71278 15.8932 5.73706L9.33716 10.108Z" fill="#F3F3FB"/>
<path d="M0.626562 4.95698L7.18291 9.32804C7.43109 9.49351 7.71553 9.57623 7.99997 9.57623C8.28444 9.57623 8.56891 9.49348 8.81709 9.32804L15.3734 4.95698C15.7658 4.69557 16 4.25807 16 3.78588C16 2.97398 15.3395 2.31348 14.5276 2.31348H1.47241C0.660531 2.31351 0 2.97401 0 3.78666C0 4.25807 0.23425 4.69557 0.626562 4.95698Z" fill="#F3F3FB"/>
</svg>
