<svg width="15" height="13" viewBox="0 0 15 13" fill="none" xmlns="http://www.w3.org/2000/svg">
<path d="M14.402 6.29501C14.402 5.75155 14.2102 5.28801 13.8266 4.9044L9.5349 0.612688C9.34309 0.42088 9.10733 0.324976 8.82761 0.324976C8.54789 0.324976 8.31212 0.42088 8.12032 0.612688C8.02441 0.708592 7.95248 0.816484 7.90453 0.936365C7.85658 1.05624 7.8326 1.18412 7.8326 1.31998C7.8326 1.45584 7.85658 1.58372 7.90453 1.7036C7.95248 1.82348 8.02441 1.93137 8.12032 2.02727L11.405 5.31199H1.40703C1.1353 5.31199 0.903532 5.40789 0.711724 5.5997C0.519915 5.79151 0.424011 6.02727 0.424011 6.30699C0.424011 6.58671 0.519915 6.82248 0.711724 7.01429C0.903532 7.2061 1.1353 7.302 1.40703 7.302H11.405L8.12032 10.5867C7.92851 10.7945 7.8326 11.0343 7.8326 11.306C7.8326 11.5777 7.92851 11.8135 8.12032 12.0133C8.31212 12.2131 8.54789 12.313 8.82761 12.313C9.10733 12.313 9.34309 12.2171 9.5349 12.0253L13.8266 7.70959C14.2102 7.32598 14.402 6.86244 14.402 6.31898V6.29501Z" fill="white"/>
</svg>
