<svg width="21" height="21" viewBox="0 0 21 21" fill="none" xmlns="http://www.w3.org/2000/svg">
<path d="M19.4847 5.7825C19.2666 4.96132 18.624 4.31459 17.8082 4.09511C16.3294 3.69629 10.3995 3.69629 10.3995 3.69629C10.3995 3.69629 4.4696 3.69629 2.99075 4.09511C2.17488 4.31462 1.53231 4.96132 1.31422 5.7825C0.917969 7.27094 0.917969 10.3764 0.917969 10.3764C0.917969 10.3764 0.917969 13.4819 1.31422 14.9704C1.53231 15.7915 2.17488 16.4113 2.99075 16.6308C4.4696 17.0296 10.3995 17.0296 10.3995 17.0296C10.3995 17.0296 16.3293 17.0296 17.8082 16.6308C18.624 16.4113 19.2666 15.7915 19.4847 14.9704C19.881 13.4819 19.881 10.3764 19.881 10.3764C19.881 10.3764 19.881 7.27094 19.4847 5.7825ZM8.46005 13.196V7.55688L13.4163 10.3765L8.46005 13.196Z" fill="white"/>
</svg>
