<svg width="21" height="21" viewBox="0 0 21 21" fill="none" xmlns="http://www.w3.org/2000/svg">
<path d="M10.4014 5.86719C7.91699 5.86719 5.91309 7.87109 5.91309 10.3555C5.91309 12.8398 7.91699 14.8437 10.4014 14.8437C12.8857 14.8437 14.8896 12.8398 14.8896 10.3555C14.8896 7.87109 12.8857 5.86719 10.4014 5.86719ZM10.4014 13.2734C8.7959 13.2734 7.4834 11.9648 7.4834 10.3555C7.4834 8.74609 8.79199 7.4375 10.4014 7.4375C12.0107 7.4375 13.3193 8.74609 13.3193 10.3555C13.3193 11.9648 12.0068 13.2734 10.4014 13.2734ZM16.1201 5.68359C16.1201 6.26562 15.6514 6.73047 15.0732 6.73047C14.4912 6.73047 14.0264 6.26172 14.0264 5.68359C14.0264 5.10547 14.4951 4.63672 15.0732 4.63672C15.6514 4.63672 16.1201 5.10547 16.1201 5.68359ZM19.0928 6.74609C19.0264 5.34375 18.7061 4.10156 17.6787 3.07812C16.6553 2.05469 15.4131 1.73438 14.0107 1.66406C12.5654 1.58203 8.2334 1.58203 6.78809 1.66406C5.38965 1.73047 4.14746 2.05078 3.12012 3.07422C2.09277 4.09766 1.77637 5.33984 1.70605 6.74219C1.62402 8.1875 1.62402 12.5195 1.70605 13.9648C1.77246 15.3672 2.09277 16.6094 3.12012 17.6328C4.14746 18.6562 5.38574 18.9766 6.78809 19.0469C8.2334 19.1289 12.5654 19.1289 14.0107 19.0469C15.4131 18.9805 16.6553 18.6602 17.6787 17.6328C18.7021 16.6094 19.0225 15.3672 19.0928 13.9648C19.1748 12.5195 19.1748 8.19141 19.0928 6.74609ZM17.2256 15.5156C16.9209 16.2812 16.3311 16.8711 15.5615 17.1797C14.4092 17.6367 11.6748 17.5312 10.4014 17.5312C9.12793 17.5312 6.38965 17.6328 5.24121 17.1797C4.47559 16.875 3.88574 16.2852 3.57715 15.5156C3.12012 14.3633 3.22559 11.6289 3.22559 10.3555C3.22559 9.08203 3.12402 6.34375 3.57715 5.19531C3.88184 4.42969 4.47168 3.83984 5.24121 3.53125C6.39355 3.07422 9.12793 3.17969 10.4014 3.17969C11.6748 3.17969 14.4131 3.07812 15.5615 3.53125C16.3271 3.83594 16.917 4.42578 17.2256 5.19531C17.6826 6.34766 17.5771 9.08203 17.5771 10.3555C17.5771 11.6289 17.6826 14.3672 17.2256 15.5156Z" fill="white"/>
</svg>
